# xmcd CD database file
#
# Track frame offsets:
#	150
#	13615
#	23263
#	35780
#	45595
#	56496
#	69125
#	84011
#	94244
#	109102
#	120533
#	134137
#	146487
#	158308
#
# Disc length: 2321 seconds
#
# Revision: 0
# Processed by: cddbd v1.5.2PL0 Copyright (c) Steve Scherf et al.
# Submitted via: CDex 1.79
#
DISCID=a6090f0e
DTITLE=Don Williams and Kenny Rogers - Don Williams and Kenny Rogers CD 1
DYEAR=1900
DGENRE=Country
TTITLE0=Wheredo we go from here
TTITLE1=In my life
TTITLE2=Coming apart
TTITLE3=Apartment number 9
TTITLE4=Always something there to remind me
TTITLE5=There's never been a time
TTITLE6=Long walk from childhood
TTITLE7=Take my hand for a little while
TTITLE8=Ordinary day
TTITLE9=Storybook children
TTITLE10=Ruby Tuesday
TTITLE11=On her way to be a woman
TTITLE12=Follow me back to Louisville
TTITLE13=Tears
EXTD=
EXTT0=
EXTT1=
EXTT2=
EXTT3=
EXTT4=
EXTT5=
EXTT6=
EXTT7=
EXTT8=
EXTT9=
EXTT10=
EXTT11=
EXTT12=
EXTT13=
PLAYORDER=
